The Pirates Band of Misfits 2012 R5 CAM AUDIO XviD-YanKeeS

IMDB link: http://www.imdb.com/title/tt1430626/

General
Format                           : AVI
Format/Info                      : Audio Video Interleave
Format profile                   : OpenDML
File size                        : 700 MiB
Duration                         : 1h 24mn
Overall bit rate                 : 1 158 Kbps

Video
ID                               : 0
Format                           : MPEG-4 Visual
Format profile                   : Advanced Simple@L5
Format settings, BVOP            : 2
Format settings, QPel            : No
Format settings, GMC             : No warppoints
Format settings, Matrix          : Default (MPEG)
Muxing mode                      : Packed bitstream
Codec ID                         : XVID
Codec ID/Hint                    : XviD
Duration                         : 1h 24mn
Bit rate                         : 1 022 Kbps
Width                            : 640 pixels
Height                           : 272 pixels
Display aspect ratio             : 2.35:1
Frame rate                       : 25.000 fps
Color space                      : YUV
Chroma subsampling               : 4:2:0
Bit depth                        : 8 bits
Scan type                        : Progressive
Compression mode                 : Lossy
Bits/(Pixel*Frame)               : 0.235
Stream size                      : 618 MiB (88%)
Writing library                  : XviD 64

Audio
ID                               : 1
Format                           : MPEG Audio
Format version                   : Version 1
Format profile                   : Layer 3
Mode                             : Joint stereo
Mode extension                   : MS Stereo
Codec ID                         : 55
Codec ID/Hint                    : MP3
Duration                         : 1h 24mn
Bit rate mode                    : Constant
Bit rate                         : 128 Kbps
Channel(s)                       : 2 channels
Sampling rate                    : 48.0 KHz
Compression mode                 : Lossy
Stream size                      : 77.3 MiB (11%)
Alignment                        : Aligned on interleaves
Interleave, duration             : 24 ms (0.60 video frame)
Interleave, preload duration     : 192 ms
Title                            : English - YanKeeS


Notes:
Used Cam audio BBnRG (Thanks).
The final part of the movie was filled with Russian audio, but not interefe anything, because it only has only 3 min of Russian audio.


Poster:

 
http://i.imgur.com/RoApK.jpg


Screenshots:

 
http://i.imgur.com/nAdyx.png

 
http://i.imgur.com/5w2tP.png

 
http://i.imgur.com/i0Qoh.png


ENJOY!